Coordinates
version=1
nRows=6
nColumns=107
inDegrees=yes

Units are S.I. units (second, meters, Newtons, ...)
If the header above contains a line with 'inDegrees', this indicates whether rotational values are in degrees (yes) or radians (no).

endheader
time	sternoclavicular_r2	sternoclavicular_r3	unrotscap_r3	unrotscap_r2	acromioclavicular_r2	acromioclavicular_r3	acromioclavicular_r1	unrothum_r1	unrothum_r3	unrothum_r2	elv_angle	shoulder_elv	shoulder1_r2	shoulder_rot	elbow_flexion	pro_sup	deviation	flexion	proximal_distal_r1	proximal_distal_r3	cmc_flexion	cmc_abduction	mp_flexion	ip_flexion	mcp2_flexion	mcp2_abduction	pm2_flexion	md2_flexion	mcp3_flexion	mcp3_abduction	pm3_flexion	md3_flexion	mcp4_flexion	mcp4_abduction	pm4_flexion	md4_flexion	mcp5_flexion	mcp5_abduction	pm5_flexion	md5_flexion	bicpt_tx	bicpt_ty	bicpt_tz	bicpt2_tx	bicpt2_ty	bicpt2_tz	ptpt_tx	ptpt_ty	ptpt_tz	FCUpt_tx	FCUpt_ty	FCUpt_tz	EDCpt_tx	EDCpt_ty	EDCpt_tz	APLpt_tx	APLpt_ty	APLpt_tz	FPLpt_tx	FPLpt_ty	FPLpt_tz	FPLpt2_tx	FPLpt2_ty	FPLpt2_tz	PEC1pt2_tx	PEC1pt2_ty	PEC1pt2_tz	PEC1pt3_tx	PEC1pt3_ty	PEC1pt3_tz	PEC2pt2_tx	PEC2pt2_ty	PEC2pt2_tz	PEC2pt3_tx	PEC2pt3_ty	PEC2pt3_tz	PEC3pt2_tx	PEC3pt2_ty	PEC3pt2_tz	PEC3pt3_tx	PEC3pt3_ty	PEC3pt3_tz	DELT2pt2a_tx	DELT2pt2a_ty	DELT2pt2a_tz	DELT2pt2_tx	DELT2pt2_ty	DELT2pt2_tz	LAT1pt2_tx	LAT1pt2_ty	LAT1pt2_tz	LAT1pt3_tx	LAT1pt3_ty	LAT1pt3_tz	LAT2pt2_tx	LAT2pt2_ty	LAT2pt2_tz	LAT2pt3_tx	LAT2pt3_ty	LAT2pt3_tz	LAT3pt2_tx	LAT3pt2_ty	LAT3pt2_tz	LAT3pt3_tx	LAT3pt3_ty	LAT3pt3_tz
      1.70000000	     -0.28789518	      0.12193881	     -0.12193881	      0.28789518	     -0.05829292	      0.47110285	      0.21175749	     -0.21175749	     -0.47110285	      0.05829292	    114.04310175	     68.16174243	     -1.99042761	    -82.60610843	     38.68794029	     85.44074996	      0.42496616	     -1.19677395	      0.42891968	     -0.59838698	      8.43764537	     -1.50935112	    -17.48247435	    -14.63167951	     27.29963029	      6.59266912	     41.22997409	      8.20443899	     18.98733982	      1.67781485	     58.07126444	     38.69235461	      7.91380611	     -4.98096694	     64.35937302	     27.12922593	     -5.03501430	    -13.92912438	     -1.91366119	      5.20437294	      0.00117968	     -0.03203423	     -0.00501424	      0.01429736	     -0.02070977	     -0.00117159	      0.00123689	     -0.06898216	     -0.00693271	      0.01267381	     -0.18225663	      0.00006851	     -0.01025287	      0.00354737	     -0.00073935	      0.00002501	      0.00001000	      0.00005002	      0.00003202	      0.00009605	      0.00005403	      0.00003457	     -0.00017139	     -0.00020567	      0.00223419	      0.00783861	      0.00545294	     -0.00730846	      0.01764633	     -0.01673751	      0.00223419	      0.00783861	      0.00545294	      0.00049228	      0.01635883	     -0.00859596	      0.00363314	      0.00435895	      0.01514797	      0.00000000	      0.00620570	      0.00000000	     -0.00639964	     -0.02957465	     -0.00510644	      0.02369057	     -0.00267206	     -0.04110862	     -0.00079522	      0.01332942	     -0.00545294	      0.00219632	      0.01923677	     -0.01590442	     -0.00533934	      0.01154964	     -0.00488493	     -0.01113309	      0.02438678	     -0.02730259	     -0.02090295	      0.01291287	     -0.00655111	     -0.01385957	      0.02817354	     -0.03411877
      1.73333333	     -0.28667331	      0.12142128	     -0.12142128	      0.28667331	     -0.05804551	      0.46910342	      0.21085876	     -0.21085876	     -0.46910342	      0.05804551	    114.35202251	     67.87245398	     -1.99581930	    -83.57451491	     39.44017491	     86.55728771	      0.42614118	     -1.19952557	      0.42969574	     -0.59976279	      9.55866300	     -3.23033562	    -15.73313217	    -13.56765133	     21.77605762	      4.76183976	     41.07488079	      8.24501819	     10.07251751	      0.23660035	     52.91082741	     36.33835920	     -1.67682846	     -4.38683158	     59.68299037	     26.08358782	     -9.28570134	    -13.92612065	     -2.12032710	      5.30441543	      0.00120456	     -0.03212045	     -0.00502813	      0.01418196	     -0.02091412	     -0.00098040	      0.00115439	     -0.06903551	     -0.00702265	      0.01280207	     -0.18221882	      0.00009926	     -0.01038685	      0.00360864	     -0.00077519	      0.00002231	      0.00000892	      0.00004461	      0.00002855	      0.00008565	      0.00004818	      0.00003324	     -0.00018822	     -0.00022587	      0.00222471	      0.00780534	      0.00542980	     -0.00727744	      0.01757144	     -0.01666647	      0.00222471	      0.00780534	      0.00542980	      0.00049019	      0.01628940	     -0.00855948	      0.00362133	      0.00434045	      0.01511530	      0.00000000	      0.00615293	      0.00000000	     -0.00637247	     -0.02944913	     -0.00506251	      0.02343221	     -0.00270348	     -0.04170866	     -0.00079185	      0.01327285	     -0.00542980	      0.00218700	      0.01915513	     -0.01583692	     -0.00531668	      0.01150062	     -0.00486420	     -0.01108584	      0.02428328	     -0.02718671	     -0.02081424	      0.01285807	     -0.00652330	     -0.01380074	      0.02805397	     -0.03397396
      1.76666667	     -0.28550534	      0.12092659	     -0.12092659	      0.28550534	     -0.05780902	      0.46719220	      0.20999968	     -0.20999968	     -0.46719220	      0.05780902	    114.64541597	     67.59592767	     -2.00093998	    -84.45976476	     40.32718504	     87.42096525	      0.42841440	     -1.20391180	      0.43119103	     -0.60195590	     10.27468444	     -0.97656892	    -14.83212848	    -13.13741778	     18.54868223	      3.69136191	     39.99107918	      7.85866003	      2.69252026	     -0.88685373	     49.15995463	     35.05457763	     -8.87832286	     -4.81150513	     56.19651440	     25.25577100	    -11.23455476	    -14.03494048	     -2.46288402	      5.20178463	      0.00123390	     -0.03222211	     -0.00504450	      0.01409082	     -0.02115508	     -0.00083135	      0.00109058	     -0.06907677	     -0.00709223	      0.01290153	     -0.18218934	      0.00012366	     -0.01049049	      0.00365629	     -0.00080337	      0.00001797	      0.00000719	      0.00003593	      0.00002300	      0.00006899	      0.00003881	      0.00003234	     -0.00019823	     -0.00023788	      0.00221565	      0.00777354	      0.00540768	     -0.00724779	      0.01749985	     -0.01659857	      0.00221565	      0.00777354	      0.00540768	      0.00048819	      0.01622304	     -0.00852460	      0.00361000	      0.00432277	      0.01508388	      0.00000000	      0.00610270	      0.00000000	     -0.00634651	     -0.02932915	     -0.00502070	      0.02318509	     -0.00273182	     -0.04225117	     -0.00078862	      0.01321877	     -0.00540768	      0.00217809	      0.01907709	     -0.01577240	     -0.00529502	      0.01145376	     -0.00484438	     -0.01104068	      0.02418434	     -0.02707595	     -0.02072944	      0.01280568	     -0.00649673	     -0.01374452	      0.02793967	     -0.03383555
      1.80000000	     -0.28519472	      0.12079502	     -0.12079502	      0.28519472	     -0.05774613	      0.46668390	      0.20977120	     -0.20977120	     -0.46668390	      0.05774613	    114.52731419	     67.52238456	     -1.99887872	    -84.08113495	     40.33938667	     86.86682384	      0.42724393	     -1.20121704	      0.43042206	     -0.60060852	      9.76571940	     -3.96236453	    -12.90423878	    -11.64450850	     11.62651101	      1.70983117	     38.44775197	      7.07985333	     -6.22327807	     -2.08428557	     44.66394343	     32.43266409	    -18.78800471	     -4.02353320	     51.15582076	     24.42831258	    -18.46236360	    -13.96731044	     -1.95973484	      5.44930741	      0.00123430	     -0.03222351	     -0.00504473	      0.01414946	     -0.02115839	     -0.00092708	      0.00113152	     -0.06905029	     -0.00704759	      0.01283769	     -0.18220828	      0.00010795	     -0.01042399	      0.00362570	     -0.00078525	      0.00002064	      0.00000825	      0.00004127	      0.00002641	      0.00007924	      0.00004457	      0.00003299	     -0.00019119	     -0.00022943	      0.00221324	      0.00776508	      0.00540180	     -0.00723991	      0.01748081	     -0.01658051	      0.00221324	      0.00776508	      0.00540180	      0.00048766	      0.01620539	     -0.00851533	      0.00360699	      0.00431806	      0.01507548	      0.00000000	      0.00608938	      0.00000000	     -0.00633961	     -0.02929724	     -0.00500961	      0.02329207	     -0.00271974	     -0.04201986	     -0.00078776	      0.01320439	     -0.00540180	      0.00217572	      0.01905633	     -0.01575524	     -0.00528926	      0.01144130	     -0.00483911	     -0.01102867	      0.02415803	     -0.02704649	     -0.02070688	      0.01279175	     -0.00648966	     -0.01372956	      0.02790928	     -0.03379873
      1.83333333	     -0.28505444	      0.12073561	     -0.12073561	      0.28505444	     -0.05771772	      0.46645435	      0.20966802	     -0.20966802	     -0.46645435	      0.05771772	    114.60444586	     67.48917155	     -2.00022492	    -84.32293122	     40.50824488	     86.47970974	      0.42721455	     -1.20109510	      0.43040272	     -0.60054755	      8.72210365	     -3.86111675	    -10.47840840	     -8.98893577	      6.45822642	      1.14794495	     38.13475343	      4.91929336	    -13.96515967	     -2.43947954	     42.64035658	     27.08713737	    -26.02520578	     -3.53340410	     46.08585333	     25.37892951	    -26.25532348	    -14.04238688	      5.66628315	      5.19470799	      0.00123989	     -0.03224286	     -0.00504784	      0.01419006	     -0.02120426	     -0.00099373	      0.00116013	     -0.06903180	     -0.00701640	      0.01279314	     -0.18222146	      0.00009710	     -0.01037754	      0.00360437	     -0.00077268	      0.00002076	      0.00000830	      0.00004151	      0.00002657	      0.00007970	      0.00004483	      0.00003423	     -0.00017582	     -0.00021098	      0.00221215	      0.00776126	      0.00539914	     -0.00723635	      0.01747221	     -0.01657236	      0.00221215	      0.00776126	      0.00539914	      0.00048742	      0.01619741	     -0.00851114	      0.00360562	      0.00431594	      0.01507169	      0.00000000	      0.00608337	      0.00000000	     -0.00633649	     -0.02928283	     -0.00500461	      0.02322396	     -0.00272746	     -0.04216770	     -0.00078737	      0.01319789	     -0.00539914	      0.00217465	      0.01904696	     -0.01574749	     -0.00528666	      0.01143567	     -0.00483673	     -0.01102324	      0.02414615	     -0.02703319	     -0.02069670	      0.01278546	     -0.00648646	     -0.01372281	      0.02789555	     -0.03378211
      1.86666667	     -0.28511568	      0.12076155	     -0.12076155	      0.28511568	     -0.05773013	      0.46655457	      0.20971307	     -0.20971307	     -0.46655457	      0.05773013	    114.76829059	     67.50367267	     -2.00308455	    -84.95524094	     40.63843770	     86.59707842	      0.42752734	     -1.20186859	      0.43060841	     -0.60093429	      8.66316842	     -3.69733546	    -10.13354640	     -8.56603131	      2.41675382	      0.61049818	     35.17793319	      3.42953388	    -20.21296684	     -2.65415107	     38.69037727	     25.43457377	    -32.08343039	     -3.12587756	     41.91755326	     24.30747356	    -29.84406221	    -14.04171667	      4.13990668	      5.20985888	      0.00124419	     -0.03225779	     -0.00505025	      0.01417778	     -0.02123963	     -0.00097354	      0.00115145	     -0.06903741	     -0.00702586	      0.01280665	     -0.18221747	      0.00010038	     -0.01039163	      0.00361083	     -0.00077649	      0.00001999	      0.00000800	      0.00003998	      0.00002559	      0.00007676	      0.00004318	      0.00003430	     -0.00017489	     -0.00020987	      0.00221262	      0.00776293	      0.00540030	     -0.00723790	      0.01747597	     -0.01657592	      0.00221262	      0.00776293	      0.00540030	      0.00048753	      0.01620090	     -0.00851297	      0.00360622	      0.00431687	      0.01507337	      0.00000000	      0.00608597	      0.00000000	     -0.00633785	     -0.02928912	     -0.00500677	      0.02304211	     -0.00274751	     -0.04255217	     -0.00078754	      0.01320073	     -0.00540030	      0.00217512	      0.01905105	     -0.01575087	     -0.00528779	      0.01143813	     -0.00483777	     -0.01102561	      0.02415133	     -0.02703899	     -0.02070114	      0.01278821	     -0.00648786	     -0.01372576	      0.02790154	     -0.03378937
